<svg width="189" height="48" viewBox="0 0 189 48" fill="none" xmlns="http://www.w3.org/2000/svg">
<path d="M7.052 26.946V22.6H13.735C15.1017 22.6 16.154 22.2583 16.892 21.575C17.6573 20.8643 18.04 19.894 18.04 18.664C18.04 17.5433 17.6573 16.614 16.892 15.876C16.154 15.1107 15.1017 14.728 13.735 14.728H7.052V10.177H14.227C16.0857 10.177 17.712 10.546 19.106 11.284C20.5273 11.9947 21.6207 12.9787 22.386 14.236C23.1787 15.4933 23.575 16.942 23.575 18.582C23.575 20.2767 23.1787 21.7527 22.386 23.01C21.6207 24.24 20.5273 25.2103 19.106 25.921C17.6847 26.6043 16.031 26.946 14.145 26.946H7.052ZM2.952 39V10.177H8.528V39H2.952ZM18.696 39L9.184 26.536L14.309 24.937L25.461 39H18.696ZM36.9535 39.41C34.8762 39.41 33.0312 38.9727 31.4185 38.098C29.8058 37.196 28.5212 35.966 27.5645 34.408C26.6352 32.85 26.1705 31.0733 26.1705 29.078C26.1705 27.11 26.6215 25.3607 27.5235 23.83C28.4528 22.272 29.7102 21.042 31.2955 20.14C32.8808 19.2107 34.6438 18.746 36.5845 18.746C38.4978 18.746 40.1788 19.1833 41.6275 20.058C43.1035 20.9053 44.2515 22.0807 45.0715 23.584C45.9188 25.06 46.3425 26.741 46.3425 28.627C46.3425 28.9823 46.3152 29.3513 46.2605 29.734C46.2332 30.0893 46.1648 30.4993 46.0555 30.964L29.4095 31.005V26.987L43.5545 26.946L41.3815 28.627C41.3268 27.4517 41.1082 26.4677 40.7255 25.675C40.3702 24.8823 39.8372 24.281 39.1265 23.871C38.4432 23.4337 37.5958 23.215 36.5845 23.215C35.5185 23.215 34.5892 23.461 33.7965 23.953C33.0038 24.4177 32.3888 25.0873 31.9515 25.962C31.5415 26.8093 31.3365 27.8207 31.3365 28.996C31.3365 30.1987 31.5552 31.251 31.9925 32.153C32.4572 33.0277 33.1132 33.711 33.9605 34.203C34.8078 34.6677 35.7918 34.9 36.9125 34.9C37.9238 34.9 38.8395 34.736 39.6595 34.408C40.4795 34.0527 41.1902 33.5333 41.7915 32.85L44.9485 36.007C43.9918 37.1277 42.8165 37.975 41.4225 38.549C40.0558 39.123 38.5662 39.41 36.9535 39.41ZM51.8077 39V17.065C51.8077 15.4797 52.1493 14.0857 52.8327 12.883C53.516 11.653 54.4863 10.6827 55.7437 9.972C57.001 9.26133 58.477 8.906 60.1717 8.906C61.4563 8.906 62.5633 9.12467 63.4927 9.562C64.422 9.99933 65.2557 10.6007 65.9937 11.366L62.5907 14.81C62.29 14.5093 61.962 14.277 61.6067 14.113C61.2513 13.949 60.8003 13.867 60.2537 13.867C59.2697 13.867 58.5043 14.1403 57.9577 14.687C57.4383 15.2063 57.1787 15.958 57.1787 16.942V39H51.8077ZM47.2157 23.912V19.197H63.0417V23.912H47.2157ZM72.112 39.164L63.83 19.197H69.652L75.146 34.449H73.178L78.877 19.197H84.74L75.925 39.164H72.112ZM66.618 47.282L72.645 34.531L75.925 39.164L72.317 47.282H66.618ZM100.306 39V27.643C100.306 26.4677 99.9365 25.511 99.1985 24.773C98.4605 24.035 97.5039 23.666 96.3285 23.666C95.5632 23.666 94.8799 23.83 94.2785 24.158C93.6772 24.486 93.1989 24.9507 92.8435 25.552C92.5155 26.1533 92.3515 26.8503 92.3515 27.643L90.2605 26.577C90.2605 25.019 90.5885 23.666 91.2445 22.518C91.9279 21.3427 92.8572 20.427 94.0325 19.771C95.2352 19.115 96.5882 18.787 98.0915 18.787C99.5402 18.787 100.839 19.156 101.987 19.894C103.135 20.6047 104.037 21.5477 104.693 22.723C105.349 23.871 105.677 25.1147 105.677 26.454V39H100.306ZM86.9805 39V19.197H92.3515V39H86.9805ZM119.474 39.41C117.397 39.41 115.552 38.9727 113.939 38.098C112.326 37.196 111.042 35.966 110.085 34.408C109.156 32.85 108.691 31.0733 108.691 29.078C108.691 27.11 109.142 25.3607 110.044 23.83C110.973 22.272 112.231 21.042 113.816 20.14C115.401 19.2107 117.164 18.746 119.105 18.746C121.018 18.746 122.699 19.1833 124.148 20.058C125.624 20.9053 126.772 22.0807 127.592 23.584C128.439 25.06 128.863 26.741 128.863 28.627C128.863 28.9823 128.836 29.3513 128.781 29.734C128.754 30.0893 128.685 30.4993 128.576 30.964L111.93 31.005V26.987L126.075 26.946L123.902 28.627C123.847 27.4517 123.629 26.4677 123.246 25.675C122.891 24.8823 122.358 24.281 121.647 23.871C120.964 23.4337 120.116 23.215 119.105 23.215C118.039 23.215 117.11 23.461 116.317 23.953C115.524 24.4177 114.909 25.0873 114.472 25.962C114.062 26.8093 113.857 27.8207 113.857 28.996C113.857 30.1987 114.076 31.251 114.513 32.153C114.978 33.0277 115.634 33.711 116.481 34.203C117.328 34.6677 118.312 34.9 119.433 34.9C120.444 34.9 121.36 34.736 122.18 34.408C123 34.0527 123.711 33.5333 124.312 32.85L127.469 36.007C126.512 37.1277 125.337 37.975 123.943 38.549C122.576 39.123 121.087 39.41 119.474 39.41ZM135.875 39.41C134.891 39.41 134.084 39.082 133.456 38.426C132.827 37.77 132.513 36.9637 132.513 36.007C132.513 35.0503 132.827 34.244 133.456 33.588C134.084 32.932 134.891 32.604 135.875 32.604C136.831 32.604 137.624 32.932 138.253 33.588C138.881 34.244 139.196 35.0503 139.196 36.007C139.196 36.9637 138.881 37.77 138.253 38.426C137.624 39.082 136.831 39.41 135.875 39.41Z" fill="#5BB5EA"/>
<mask id="mask0_96_2123" style="mask-type:luminance" maskUnits="userSpaceOnUse" x="142" y="8" width="35" height="31">
<path d="M176.467 38.5H144.218H142V38.1977L142.71 36.9685L143.559 35.4973L145.285 32.5083L145.448 32.2254L146.204 30.9169L146.959 29.609L147.211 29.1728L152.989 19.1635L153.241 18.7273L153.254 18.7058L154.144 17.1644L154.899 15.8558L159.146 8.5L161.363 12.3405L162.409 14.1514L167.579 23.1057L170.263 27.7551L175.907 37.5301L176.467 38.5ZM170.263 35.7376H171.682L170.263 33.2799L167.579 28.6305L162.409 19.6763L161.363 17.8651L159.146 14.0248L156.494 18.6183L155.739 19.9268L154.836 21.4897L154.584 21.9259L150.4 29.1728L150.149 29.609L149.393 30.9169L148.638 32.2254L148.474 32.5083L146.749 35.4973L146.61 35.7376H170.263Z" fill="white"/>
</mask>
<g mask="url(#mask0_96_2123)">
<path d="M176.467 38.5H144.218H142V38.1977L142.71 36.9685L143.559 35.4973L145.285 32.5083L145.448 32.2254L146.204 30.9169L146.959 29.609L147.211 29.1728L152.989 19.1635L153.241 18.7273L153.254 18.7058L154.144 17.1644L154.899 15.8558L159.146 8.5L161.363 12.3405L162.409 14.1514L167.579 23.1057L170.263 27.7551L175.907 37.5301L176.467 38.5ZM170.263 35.7376H171.682L170.263 33.2799L167.579 28.6305L162.409 19.6763L161.363 17.8651L159.146 14.0248L156.494 18.6183L155.739 19.9268L154.836 21.4897L154.584 21.9259L150.4 29.1728L150.149 29.609L149.393 30.9169L148.638 32.2254L148.474 32.5083L146.749 35.4973L146.61 35.7376H170.263Z" fill="url(#paint0_linear_96_2123)"/>
</g>
<path d="M179.419 39V10.177H184.995V39H179.419Z" fill="#5BB5EA"/>
<defs>
<linearGradient id="paint0_linear_96_2123" x1="141.826" y1="23.5" x2="176.467" y2="23.5" gradientUnits="userSpaceOnUse">
<stop stop-color="#6ECFD3"/>
<stop offset="1" stop-color="#5B77C4"/>
</linearGradient>
</defs>
</svg>
