<svg width="142" height="124" viewBox="0 0 142 124" fill="none" xmlns="http://www.w3.org/2000/svg">
<path d="M74.3291 30.5146L74.1388 30.4578C73.1807 30.1721 72.6345 29.1645 72.9203 28.2057C75.7213 18.7932 84.4448 11.8815 94.8257 11.8815C95.8256 11.8815 96.6367 12.6925 96.6367 13.6925C96.6367 14.6925 95.8257 15.5036 94.8257 15.5036C86.3792 15.5036 78.798 21.152 76.3915 29.2375L74.3291 30.5146ZM74.3291 30.5146L74.3374 30.5051M74.3291 30.5146L74.3374 30.5051M74.3374 30.5051C75.2361 30.6675 76.1273 30.1293 76.3913 29.238L74.3374 30.5051Z" fill="#5BB5EA" stroke="#F9FFF9" stroke-width="0.61618"/>
<path d="M115.865 87.3364H106.848C106.018 87.3364 105.345 86.6633 105.345 85.8335C105.345 85.0037 106.018 84.3306 106.848 84.3306H115.865C128.296 84.3306 138.409 74.2169 138.409 61.7867C138.409 49.3565 128.296 39.2428 115.865 39.2428H115.649C115.213 39.2428 114.798 39.0539 114.513 38.7243C114.227 38.3948 114.098 37.9578 114.161 37.5263C114.295 36.5902 114.363 35.6498 114.363 34.7341C114.363 23.9614 105.597 15.1959 94.8244 15.1959C90.6333 15.1959 86.6366 16.5056 83.2657 18.9843C82.5249 19.5286 81.4729 19.2871 81.0446 18.4723C71.4978 0.293395 46.5627 -2.14784 33.6351 13.6662C28.1893 20.3284 26.0495 28.9949 27.7641 37.4415C27.9531 38.3744 27.2392 39.244 26.2913 39.244H25.689C13.2589 39.244 3.14516 49.3577 3.14516 61.7878C3.14516 74.218 13.2589 84.3317 25.689 84.3317H34.7065C35.5363 84.3317 36.2094 85.0048 36.2094 85.8346C36.2094 86.6645 35.5363 87.3376 34.7065 87.3376H25.689C11.6011 87.3376 0.13916 75.8756 0.13916 61.7877C0.13916 48.095 10.9666 36.8832 24.5092 36.2648C23.2371 27.5016 25.6697 18.6622 31.3077 11.7639C45.1486 -5.16862 71.6735 -3.27071 82.8862 15.6103C86.4633 13.3677 90.5564 12.1913 94.8239 12.1913C107.876 12.1913 118.218 23.3001 117.313 36.2788C130.731 37.0314 141.415 48.1841 141.415 61.7866C141.415 75.8756 129.953 87.3365 115.865 87.3365L115.865 87.3364Z" fill="#5BB5EA"/>
<path d="M32.6941 84.9848C32.6941 105.873 49.6877 122.866 70.5758 122.866C91.4641 122.866 108.457 105.873 108.457 84.9848C108.457 64.0964 91.4641 47.1031 70.5758 47.1031C49.6874 47.1031 32.6941 64.0967 32.6941 84.9848ZM36.3168 84.9848C36.3168 66.095 51.6857 50.7259 70.5758 50.7259C89.4656 50.7259 104.835 66.0947 104.835 84.9848C104.835 103.875 89.4656 119.244 70.5758 119.244C51.686 119.244 36.3168 103.875 36.3168 84.9848Z" fill="#5BB5EA" stroke="#F9FFF9" stroke-width="0.61618"/>
<path d="M69.8543 100.111C69.8543 100.888 70.485 101.519 71.2627 101.519C72.0402 101.519 72.6711 100.889 72.6711 100.111V71.5021C72.6711 70.7244 72.0404 70.0937 71.2627 70.0937C70.485 70.0937 69.8543 70.7245 69.8543 71.5021V100.111Z" fill="#5BB5EA" stroke="#5BB5EA" stroke-width="0.61618"/>
<path d="M71.2623 73.4968L63.456 81.3031C63.4559 81.3032 63.4559 81.3033 63.4558 81.3033C62.9062 81.8537 62.014 81.8534 61.4639 81.3033C60.9137 80.7531 60.9137 79.8617 61.4639 79.3115L70.2662 70.5093L71.2623 73.4968ZM71.2623 73.4968L79.0689 81.3033C79.3435 81.578 79.705 81.7158 80.0647 81.7158L71.2623 73.4968ZM72.2582 70.5091C71.7082 69.959 70.816 69.9587 70.2664 70.5091L80.0648 81.7158C80.424 81.7158 80.7859 81.5791 81.061 81.3029C81.6109 80.7527 81.6107 79.8616 81.0606 79.3115L72.2582 70.5091Z" fill="#5BB5EA" stroke="#5BB5EA" stroke-width="0.61618"/>
</svg>
